<mxfile host="app.diagrams.net" modified="2021-03-22T17:29:27.601Z" agent="5.0 (Windows NT 10.0; Win64; x64) AppleWebKit/537.36 (KHTML, like Gecko) Chrome/89.0.4389.90 Safari/537.36" etag="97ZhWyY79KYF4HLD_oPL" version="14.4.9" type="github">
  <diagram id="OLrGYEf47lAQ2E7xzSmT" name="Page-1">
    <mxGraphModel dx="4404" dy="4400" grid="1" gridSize="10" guides="1" tooltips="1" connect="1" arrows="1" fold="1" page="1" pageScale="1" pageWidth="850" pageHeight="1100" math="0" shadow="0">
      <root>
        <mxCell id="0" />
        <mxCell id="1" parent="0" />
        <mxCell id="PHbCOnVw7HgAq8utWp_A-39" value="" style="rounded=0;whiteSpace=wrap;html=1;strokeColor=#6c8ebf;fillColor=#FFFFFF;shadow=1;glass=0;dashed=1;dashPattern=1 2;" vertex="1" parent="1">
          <mxGeometry x="2260" y="-1000" width="1720" height="1400" as="geometry" />
        </mxCell>
        <mxCell id="PHbCOnVw7HgAq8utWp_A-37" value="" style="rounded=0;whiteSpace=wrap;html=1;fillColor=none;" vertex="1" parent="1">
          <mxGeometry x="3990" y="-747.5" width="160.5" height="67.5" as="geometry" />
        </mxCell>
        <mxCell id="Q4ddRCu_6vm57bFwI37p-62" value="" style="rounded=1;whiteSpace=wrap;html=1;fillColor=none;" parent="1" vertex="1">
          <mxGeometry x="2600" y="-920" width="663.75" height="510" as="geometry" />
        </mxCell>
        <mxCell id="Q4ddRCu_6vm57bFwI37p-46" value="" style="rounded=1;whiteSpace=wrap;html=1;fillColor=none;" parent="1" vertex="1">
          <mxGeometry x="3418.75" y="-464.5" width="502.5" height="514.5" as="geometry" />
        </mxCell>
        <mxCell id="Q4ddRCu_6vm57bFwI37p-58" value="" style="rounded=1;whiteSpace=wrap;html=1;fillColor=none;" parent="1" vertex="1">
          <mxGeometry x="2860.5" y="-106.5" width="502.5" height="460" as="geometry" />
        </mxCell>
        <mxCell id="Q4ddRCu_6vm57bFwI37p-43" value="" style="edgeStyle=orthogonalEdgeStyle;rounded=0;orthogonalLoop=1;jettySize=auto;html=1;" parent="1" source="Q4ddRCu_6vm57bFwI37p-39" target="Q4ddRCu_6vm57bFwI37p-40" edge="1">
          <mxGeometry relative="1" as="geometry" />
        </mxCell>
        <mxCell id="Q4ddRCu_6vm57bFwI37p-39" value="&lt;div style=&quot;text-align: justify&quot;&gt;&lt;ul&gt;&lt;li&gt;&lt;span&gt;GET api/v1/users&lt;/span&gt;&lt;/li&gt;&lt;li&gt;&lt;span&gt;POST api/v1/users&lt;/span&gt;&lt;/li&gt;&lt;li&gt;&lt;span&gt;GET api/v1/users/:username&lt;/span&gt;&lt;/li&gt;&lt;li&gt;&lt;span&gt;GET api/v1/users/:userID&lt;/span&gt;&lt;/li&gt;&lt;li&gt;&lt;span&gt;PUT api/v1/users/:userID&lt;/span&gt;&lt;/li&gt;&lt;li&gt;PUT api/v1/users/:userID/token&lt;/li&gt;&lt;li&gt;DELETE api/v1/users/:username&lt;/li&gt;&lt;/ul&gt;&lt;/div&gt;" style="rounded=1;whiteSpace=wrap;html=1;align=left;" parent="1" vertex="1">
          <mxGeometry x="3453.75" y="-386.5" width="235" height="196.5" as="geometry" />
        </mxCell>
        <mxCell id="Q4ddRCu_6vm57bFwI37p-38" value="" style="rounded=1;whiteSpace=wrap;html=1;fillColor=none;" parent="1" vertex="1">
          <mxGeometry x="3455" y="-930" width="430" height="210" as="geometry" />
        </mxCell>
        <mxCell id="AoLztbrD8R_S6kmAyxuV-13" value="" style="rounded=1;whiteSpace=wrap;html=1;" parent="1" vertex="1">
          <mxGeometry x="1229.5" y="-401" width="430.5" height="118" as="geometry" />
        </mxCell>
        <mxCell id="AoLztbrD8R_S6kmAyxuV-14" value="" style="rounded=1;whiteSpace=wrap;html=1;" parent="1" vertex="1">
          <mxGeometry x="1227" y="-540" width="430.5" height="118" as="geometry" />
        </mxCell>
        <mxCell id="AoLztbrD8R_S6kmAyxuV-12" value="" style="rounded=1;whiteSpace=wrap;html=1;" parent="1" vertex="1">
          <mxGeometry x="1229.5" y="-260" width="430.5" height="118" as="geometry" />
        </mxCell>
        <mxCell id="NQgidzCqqt5O9EqtgwEN-80" value="" style="rounded=1;whiteSpace=wrap;html=1;" parent="1" vertex="1">
          <mxGeometry x="1190" y="660" width="320" height="300" as="geometry" />
        </mxCell>
        <mxCell id="NQgidzCqqt5O9EqtgwEN-123" value="Get CAN&lt;br&gt;Send CAN&lt;br&gt;Send MQTT&lt;br&gt;Insert Data&lt;br&gt;" style="rounded=0;whiteSpace=wrap;html=1;" parent="1" vertex="1">
          <mxGeometry x="1243" y="728" width="120" height="122" as="geometry" />
        </mxCell>
        <mxCell id="NQgidzCqqt5O9EqtgwEN-109" value="Get Data for Charts&lt;br&gt;Get Data Structure&lt;br&gt;Select Data Source&lt;br&gt;Export DB - Session(s)&lt;br&gt;Authentication&lt;br&gt;Put Marker" style="rounded=0;whiteSpace=wrap;html=1;align=left;" parent="1" vertex="1">
          <mxGeometry x="1360" y="360" width="150" height="250" as="geometry" />
        </mxCell>
        <mxCell id="NQgidzCqqt5O9EqtgwEN-97" value="" style="ellipse;shape=cloud;whiteSpace=wrap;html=1;" parent="1" vertex="1">
          <mxGeometry x="-20" y="30" width="630" height="505" as="geometry" />
        </mxCell>
        <mxCell id="NQgidzCqqt5O9EqtgwEN-10" style="edgeStyle=orthogonalEdgeStyle;rounded=0;orthogonalLoop=1;jettySize=auto;html=1;entryX=0.5;entryY=1;entryDx=0;entryDy=0;entryPerimeter=0;" parent="1" source="NQgidzCqqt5O9EqtgwEN-1" target="NQgidzCqqt5O9EqtgwEN-4" edge="1">
          <mxGeometry relative="1" as="geometry" />
        </mxCell>
        <mxCell id="NQgidzCqqt5O9EqtgwEN-25" style="edgeStyle=orthogonalEdgeStyle;rounded=0;orthogonalLoop=1;jettySize=auto;html=1;" parent="1" source="NQgidzCqqt5O9EqtgwEN-1" edge="1">
          <mxGeometry relative="1" as="geometry">
            <mxPoint x="300" y="-170" as="targetPoint" />
          </mxGeometry>
        </mxCell>
        <mxCell id="NQgidzCqqt5O9EqtgwEN-1" value="Sender" style="rounded=1;whiteSpace=wrap;html=1;" parent="1" vertex="1">
          <mxGeometry x="240" y="-290" width="120" height="60" as="geometry" />
        </mxCell>
        <mxCell id="NQgidzCqqt5O9EqtgwEN-2" value="" style="outlineConnect=0;fontColor=#232F3E;gradientColor=none;strokeColor=#232F3E;fillColor=#ffffff;dashed=0;verticalLabelPosition=bottom;verticalAlign=top;align=center;html=1;fontSize=12;fontStyle=0;aspect=fixed;shape=mxgraph.aws4.resourceIcon;resIcon=mxgraph.aws4.car;" parent="1" vertex="1">
          <mxGeometry x="210" y="-320" width="60" height="60" as="geometry" />
        </mxCell>
        <mxCell id="NQgidzCqqt5O9EqtgwEN-9" style="edgeStyle=orthogonalEdgeStyle;rounded=0;orthogonalLoop=1;jettySize=auto;html=1;" parent="1" source="NQgidzCqqt5O9EqtgwEN-3" target="NQgidzCqqt5O9EqtgwEN-5" edge="1">
          <mxGeometry relative="1" as="geometry" />
        </mxCell>
        <mxCell id="NQgidzCqqt5O9EqtgwEN-3" value="Dashboard" style="rounded=1;whiteSpace=wrap;html=1;" parent="1" vertex="1">
          <mxGeometry x="80" y="-630" width="120" height="60" as="geometry" />
        </mxCell>
        <mxCell id="NQgidzCqqt5O9EqtgwEN-4" value="Telemetria" style="shape=cylinder3;whiteSpace=wrap;html=1;boundedLbl=1;backgroundOutline=1;size=15;" parent="1" vertex="1">
          <mxGeometry x="365" y="-490" width="60" height="80" as="geometry" />
        </mxCell>
        <mxCell id="NQgidzCqqt5O9EqtgwEN-11" style="edgeStyle=orthogonalEdgeStyle;rounded=0;orthogonalLoop=1;jettySize=auto;html=1;" parent="1" source="NQgidzCqqt5O9EqtgwEN-5" target="NQgidzCqqt5O9EqtgwEN-4" edge="1">
          <mxGeometry relative="1" as="geometry" />
        </mxCell>
        <mxCell id="NQgidzCqqt5O9EqtgwEN-24" style="edgeStyle=orthogonalEdgeStyle;rounded=0;orthogonalLoop=1;jettySize=auto;html=1;" parent="1" source="NQgidzCqqt5O9EqtgwEN-5" target="NQgidzCqqt5O9EqtgwEN-23" edge="1">
          <mxGeometry relative="1" as="geometry">
            <Array as="points">
              <mxPoint x="480" y="-600" />
            </Array>
          </mxGeometry>
        </mxCell>
        <mxCell id="NQgidzCqqt5O9EqtgwEN-5" value="Server" style="rounded=1;whiteSpace=wrap;html=1;" parent="1" vertex="1">
          <mxGeometry x="335" y="-630" width="120" height="60" as="geometry" />
        </mxCell>
        <mxCell id="NQgidzCqqt5O9EqtgwEN-7" style="edgeStyle=orthogonalEdgeStyle;rounded=0;orthogonalLoop=1;jettySize=auto;html=1;" parent="1" source="NQgidzCqqt5O9EqtgwEN-6" target="NQgidzCqqt5O9EqtgwEN-3" edge="1">
          <mxGeometry relative="1" as="geometry" />
        </mxCell>
        <mxCell id="NQgidzCqqt5O9EqtgwEN-8" style="edgeStyle=orthogonalEdgeStyle;rounded=0;orthogonalLoop=1;jettySize=auto;html=1;" parent="1" source="NQgidzCqqt5O9EqtgwEN-6" target="NQgidzCqqt5O9EqtgwEN-1" edge="1">
          <mxGeometry relative="1" as="geometry" />
        </mxCell>
        <mxCell id="NQgidzCqqt5O9EqtgwEN-6" value="MQTT" style="rounded=1;whiteSpace=wrap;html=1;" parent="1" vertex="1">
          <mxGeometry x="120" y="-470" width="120" height="60" as="geometry" />
        </mxCell>
        <mxCell id="NQgidzCqqt5O9EqtgwEN-23" value="Bosetti" style="shape=cylinder3;whiteSpace=wrap;html=1;boundedLbl=1;backgroundOutline=1;size=15;" parent="1" vertex="1">
          <mxGeometry x="450" y="-490" width="60" height="80" as="geometry" />
        </mxCell>
        <mxCell id="NQgidzCqqt5O9EqtgwEN-26" value="OnBoard" style="shape=cylinder3;whiteSpace=wrap;html=1;boundedLbl=1;backgroundOutline=1;size=15;" parent="1" vertex="1">
          <mxGeometry x="270" y="-170" width="60" height="80" as="geometry" />
        </mxCell>
        <mxCell id="NQgidzCqqt5O9EqtgwEN-32" value="Login" style="rounded=1;whiteSpace=wrap;html=1;" parent="1" vertex="1">
          <mxGeometry x="110" y="250" width="120" height="60" as="geometry" />
        </mxCell>
        <mxCell id="NQgidzCqqt5O9EqtgwEN-33" value="Telemetria" style="shape=cylinder3;whiteSpace=wrap;html=1;boundedLbl=1;backgroundOutline=1;size=15;" parent="1" vertex="1">
          <mxGeometry x="1555" y="558" width="60" height="80" as="geometry" />
        </mxCell>
        <mxCell id="NQgidzCqqt5O9EqtgwEN-51" style="edgeStyle=orthogonalEdgeStyle;rounded=0;orthogonalLoop=1;jettySize=auto;html=1;" parent="1" source="NQgidzCqqt5O9EqtgwEN-36" target="NQgidzCqqt5O9EqtgwEN-49" edge="1">
          <mxGeometry relative="1" as="geometry" />
        </mxCell>
        <mxCell id="NQgidzCqqt5O9EqtgwEN-62" style="edgeStyle=orthogonalEdgeStyle;rounded=0;orthogonalLoop=1;jettySize=auto;html=1;entryX=0.003;entryY=0.434;entryDx=0;entryDy=0;entryPerimeter=0;" parent="1" source="NQgidzCqqt5O9EqtgwEN-36" target="NQgidzCqqt5O9EqtgwEN-61" edge="1">
          <mxGeometry relative="1" as="geometry">
            <Array as="points">
              <mxPoint x="1390" y="166" />
            </Array>
          </mxGeometry>
        </mxCell>
        <mxCell id="NQgidzCqqt5O9EqtgwEN-108" style="edgeStyle=orthogonalEdgeStyle;rounded=0;orthogonalLoop=1;jettySize=auto;html=1;entryX=0;entryY=0.5;entryDx=0;entryDy=0;" parent="1" source="NQgidzCqqt5O9EqtgwEN-36" target="NQgidzCqqt5O9EqtgwEN-58" edge="1">
          <mxGeometry relative="1" as="geometry">
            <Array as="points">
              <mxPoint x="1390" y="258" />
            </Array>
          </mxGeometry>
        </mxCell>
        <mxCell id="NQgidzCqqt5O9EqtgwEN-125" style="edgeStyle=orthogonalEdgeStyle;rounded=0;orthogonalLoop=1;jettySize=auto;html=1;" parent="1" source="NQgidzCqqt5O9EqtgwEN-36" target="NQgidzCqqt5O9EqtgwEN-117" edge="1">
          <mxGeometry relative="1" as="geometry">
            <Array as="points">
              <mxPoint x="1270" y="340" />
            </Array>
          </mxGeometry>
        </mxCell>
        <mxCell id="NQgidzCqqt5O9EqtgwEN-36" value="Business Logic" style="rounded=1;whiteSpace=wrap;html=1;" parent="1" vertex="1">
          <mxGeometry x="1330" y="310" width="120" height="60" as="geometry" />
        </mxCell>
        <mxCell id="NQgidzCqqt5O9EqtgwEN-40" value="Bosetti" style="shape=cylinder3;whiteSpace=wrap;html=1;boundedLbl=1;backgroundOutline=1;size=15;" parent="1" vertex="1">
          <mxGeometry x="1660" y="558" width="60" height="80" as="geometry" />
        </mxCell>
        <mxCell id="NQgidzCqqt5O9EqtgwEN-52" style="edgeStyle=orthogonalEdgeStyle;rounded=0;orthogonalLoop=1;jettySize=auto;html=1;" parent="1" source="NQgidzCqqt5O9EqtgwEN-49" target="NQgidzCqqt5O9EqtgwEN-50" edge="1">
          <mxGeometry relative="1" as="geometry" />
        </mxCell>
        <mxCell id="NQgidzCqqt5O9EqtgwEN-49" value="Adapter" style="rounded=1;whiteSpace=wrap;html=1;" parent="1" vertex="1">
          <mxGeometry x="1580" y="310" width="120" height="60" as="geometry" />
        </mxCell>
        <mxCell id="NQgidzCqqt5O9EqtgwEN-53" style="edgeStyle=orthogonalEdgeStyle;rounded=0;orthogonalLoop=1;jettySize=auto;html=1;entryX=0.5;entryY=0;entryDx=0;entryDy=0;entryPerimeter=0;" parent="1" source="NQgidzCqqt5O9EqtgwEN-50" target="NQgidzCqqt5O9EqtgwEN-40" edge="1">
          <mxGeometry relative="1" as="geometry">
            <Array as="points">
              <mxPoint x="1640" y="500" />
              <mxPoint x="1690" y="500" />
            </Array>
          </mxGeometry>
        </mxCell>
        <mxCell id="NQgidzCqqt5O9EqtgwEN-54" style="edgeStyle=orthogonalEdgeStyle;rounded=0;orthogonalLoop=1;jettySize=auto;html=1;entryX=0.5;entryY=0;entryDx=0;entryDy=0;entryPerimeter=0;" parent="1" source="NQgidzCqqt5O9EqtgwEN-50" target="NQgidzCqqt5O9EqtgwEN-33" edge="1">
          <mxGeometry relative="1" as="geometry">
            <Array as="points">
              <mxPoint x="1640" y="500" />
              <mxPoint x="1585" y="500" />
            </Array>
          </mxGeometry>
        </mxCell>
        <mxCell id="NQgidzCqqt5O9EqtgwEN-50" value="Data Layer" style="rounded=1;whiteSpace=wrap;html=1;" parent="1" vertex="1">
          <mxGeometry x="1580" y="400" width="120" height="60" as="geometry" />
        </mxCell>
        <mxCell id="NQgidzCqqt5O9EqtgwEN-55" value="Dashboard" style="rounded=1;whiteSpace=wrap;html=1;" parent="1" vertex="1">
          <mxGeometry x="240" y="250" width="120" height="60" as="geometry" />
        </mxCell>
        <mxCell id="NQgidzCqqt5O9EqtgwEN-64" style="edgeStyle=orthogonalEdgeStyle;rounded=0;orthogonalLoop=1;jettySize=auto;html=1;" parent="1" source="NQgidzCqqt5O9EqtgwEN-58" target="NQgidzCqqt5O9EqtgwEN-63" edge="1">
          <mxGeometry relative="1" as="geometry" />
        </mxCell>
        <mxCell id="NQgidzCqqt5O9EqtgwEN-58" value="AirTable" style="rounded=1;whiteSpace=wrap;html=1;" parent="1" vertex="1">
          <mxGeometry x="1580" y="228" width="120" height="60" as="geometry" />
        </mxCell>
        <mxCell id="NQgidzCqqt5O9EqtgwEN-107" style="edgeStyle=orthogonalEdgeStyle;rounded=0;orthogonalLoop=1;jettySize=auto;html=1;entryX=0;entryY=0.5;entryDx=0;entryDy=0;entryPerimeter=0;" parent="1" source="NQgidzCqqt5O9EqtgwEN-61" target="NQgidzCqqt5O9EqtgwEN-106" edge="1">
          <mxGeometry relative="1" as="geometry" />
        </mxCell>
        <mxCell id="NQgidzCqqt5O9EqtgwEN-61" value="GitHub" style="rounded=1;whiteSpace=wrap;html=1;" parent="1" vertex="1">
          <mxGeometry x="1580" y="140" width="120" height="60" as="geometry" />
        </mxCell>
        <mxCell id="NQgidzCqqt5O9EqtgwEN-63" value="AT" style="shape=cylinder3;whiteSpace=wrap;html=1;boundedLbl=1;backgroundOutline=1;size=15;" parent="1" vertex="1">
          <mxGeometry x="1741" y="218" width="60" height="80" as="geometry" />
        </mxCell>
        <mxCell id="NQgidzCqqt5O9EqtgwEN-65" value="Live" style="rounded=1;whiteSpace=wrap;html=1;" parent="1" vertex="1">
          <mxGeometry x="370" y="180" width="120" height="60" as="geometry" />
        </mxCell>
        <mxCell id="NQgidzCqqt5O9EqtgwEN-81" style="edgeStyle=orthogonalEdgeStyle;rounded=0;orthogonalLoop=1;jettySize=auto;html=1;entryX=0;entryY=0.5;entryDx=0;entryDy=0;entryPerimeter=0;" parent="1" source="NQgidzCqqt5O9EqtgwEN-82" target="NQgidzCqqt5O9EqtgwEN-84" edge="1">
          <mxGeometry relative="1" as="geometry" />
        </mxCell>
        <mxCell id="NQgidzCqqt5O9EqtgwEN-82" value="Sender" style="rounded=1;whiteSpace=wrap;html=1;" parent="1" vertex="1">
          <mxGeometry x="1227" y="688" width="120" height="60" as="geometry" />
        </mxCell>
        <mxCell id="NQgidzCqqt5O9EqtgwEN-84" value="OnBoard" style="shape=cylinder3;whiteSpace=wrap;html=1;boundedLbl=1;backgroundOutline=1;size=15;" parent="1" vertex="1">
          <mxGeometry x="1409" y="749" width="60" height="80" as="geometry" />
        </mxCell>
        <mxCell id="NQgidzCqqt5O9EqtgwEN-85" style="edgeStyle=orthogonalEdgeStyle;rounded=0;orthogonalLoop=1;jettySize=auto;html=1;" parent="1" source="NQgidzCqqt5O9EqtgwEN-86" target="NQgidzCqqt5O9EqtgwEN-84" edge="1">
          <mxGeometry relative="1" as="geometry" />
        </mxCell>
        <mxCell id="NQgidzCqqt5O9EqtgwEN-86" value="Exporter" style="rounded=1;whiteSpace=wrap;html=1;" parent="1" vertex="1">
          <mxGeometry x="1227" y="868" width="125" height="60" as="geometry" />
        </mxCell>
        <mxCell id="NQgidzCqqt5O9EqtgwEN-100" value="Actor" style="shape=umlActor;verticalLabelPosition=bottom;verticalAlign=top;html=1;outlineConnect=0;" parent="1" vertex="1">
          <mxGeometry x="80" y="520" width="30" height="60" as="geometry" />
        </mxCell>
        <mxCell id="NQgidzCqqt5O9EqtgwEN-101" value="Exporter" style="rounded=1;whiteSpace=wrap;html=1;" parent="1" vertex="1">
          <mxGeometry x="370" y="320" width="120" height="60" as="geometry" />
        </mxCell>
        <mxCell id="NQgidzCqqt5O9EqtgwEN-102" value="History" style="rounded=1;whiteSpace=wrap;html=1;" parent="1" vertex="1">
          <mxGeometry x="370" y="250" width="120" height="60" as="geometry" />
        </mxCell>
        <mxCell id="NQgidzCqqt5O9EqtgwEN-106" value="GH" style="shape=cylinder3;whiteSpace=wrap;html=1;boundedLbl=1;backgroundOutline=1;size=15;" parent="1" vertex="1">
          <mxGeometry x="1741" y="130" width="60" height="80" as="geometry" />
        </mxCell>
        <mxCell id="NQgidzCqqt5O9EqtgwEN-115" value="MQTT Brocker" style="rounded=1;whiteSpace=wrap;html=1;" parent="1" vertex="1">
          <mxGeometry x="1210" y="498" width="120" height="60" as="geometry" />
        </mxCell>
        <mxCell id="NQgidzCqqt5O9EqtgwEN-116" style="edgeStyle=orthogonalEdgeStyle;rounded=0;orthogonalLoop=1;jettySize=auto;html=1;" parent="1" source="NQgidzCqqt5O9EqtgwEN-117" target="NQgidzCqqt5O9EqtgwEN-115" edge="1">
          <mxGeometry relative="1" as="geometry" />
        </mxCell>
        <mxCell id="NQgidzCqqt5O9EqtgwEN-117" value="Adapter" style="rounded=1;whiteSpace=wrap;html=1;" parent="1" vertex="1">
          <mxGeometry x="1210" y="415" width="120" height="60" as="geometry" />
        </mxCell>
        <mxCell id="NQgidzCqqt5O9EqtgwEN-124" value="" style="shape=image;html=1;verticalAlign=top;verticalLabelPosition=bottom;labelBackgroundColor=#ffffff;imageAspect=0;aspect=fixed;image=https://cdn4.iconfinder.com/data/icons/logos-and-brands/512/272_Raspberry_Pi_logo-128.png" parent="1" vertex="1">
          <mxGeometry x="1170" y="630" width="69" height="69" as="geometry" />
        </mxCell>
        <mxCell id="AoLztbrD8R_S6kmAyxuV-10" value="" style="edgeStyle=orthogonalEdgeStyle;rounded=0;orthogonalLoop=1;jettySize=auto;html=1;" parent="1" source="AoLztbrD8R_S6kmAyxuV-2" target="AoLztbrD8R_S6kmAyxuV-9" edge="1">
          <mxGeometry relative="1" as="geometry" />
        </mxCell>
        <mxCell id="AoLztbrD8R_S6kmAyxuV-2" value="Live" style="rounded=1;whiteSpace=wrap;html=1;" parent="1" vertex="1">
          <mxGeometry x="1420" y="-234" width="120" height="60" as="geometry" />
        </mxCell>
        <mxCell id="AoLztbrD8R_S6kmAyxuV-3" style="edgeStyle=orthogonalEdgeStyle;rounded=0;orthogonalLoop=1;jettySize=auto;html=1;" parent="1" source="AoLztbrD8R_S6kmAyxuV-4" target="AoLztbrD8R_S6kmAyxuV-7" edge="1">
          <mxGeometry relative="1" as="geometry" />
        </mxCell>
        <mxCell id="AoLztbrD8R_S6kmAyxuV-4" value="Login" style="rounded=1;whiteSpace=wrap;html=1;" parent="1" vertex="1">
          <mxGeometry x="1419" y="-372" width="120" height="60" as="geometry" />
        </mxCell>
        <mxCell id="AoLztbrD8R_S6kmAyxuV-5" style="edgeStyle=orthogonalEdgeStyle;rounded=0;orthogonalLoop=1;jettySize=auto;html=1;entryX=0;entryY=0.5;entryDx=0;entryDy=0;entryPerimeter=0;" parent="1" source="AoLztbrD8R_S6kmAyxuV-6" target="AoLztbrD8R_S6kmAyxuV-8" edge="1">
          <mxGeometry relative="1" as="geometry" />
        </mxCell>
        <mxCell id="AoLztbrD8R_S6kmAyxuV-6" value="History" style="rounded=1;whiteSpace=wrap;html=1;" parent="1" vertex="1">
          <mxGeometry x="1416.5" y="-507" width="120" height="60" as="geometry" />
        </mxCell>
        <mxCell id="AoLztbrD8R_S6kmAyxuV-7" value="AT" style="shape=cylinder3;whiteSpace=wrap;html=1;boundedLbl=1;backgroundOutline=1;size=15;" parent="1" vertex="1">
          <mxGeometry x="1580" y="-382" width="60" height="80" as="geometry" />
        </mxCell>
        <mxCell id="AoLztbrD8R_S6kmAyxuV-8" value="Bosetti" style="shape=cylinder3;whiteSpace=wrap;html=1;boundedLbl=1;backgroundOutline=1;size=15;" parent="1" vertex="1">
          <mxGeometry x="1577.5" y="-517" width="60" height="80" as="geometry" />
        </mxCell>
        <mxCell id="AoLztbrD8R_S6kmAyxuV-9" value="Telemetria" style="shape=cylinder3;whiteSpace=wrap;html=1;boundedLbl=1;backgroundOutline=1;size=15;" parent="1" vertex="1">
          <mxGeometry x="1580" y="-244" width="60" height="80" as="geometry" />
        </mxCell>
        <mxCell id="AoLztbrD8R_S6kmAyxuV-11" value="AMQP" style="rounded=1;whiteSpace=wrap;html=1;" parent="1" vertex="1">
          <mxGeometry x="1720" y="-540" width="70" height="400" as="geometry" />
        </mxCell>
        <mxCell id="AoLztbrD8R_S6kmAyxuV-15" value="Reverse&lt;br&gt;Proxy" style="rounded=1;whiteSpace=wrap;html=1;" parent="1" vertex="1">
          <mxGeometry x="1100" y="-540" width="70" height="400" as="geometry" />
        </mxCell>
        <mxCell id="AoLztbrD8R_S6kmAyxuV-19" value="" style="endArrow=classic;startArrow=classic;html=1;entryX=0;entryY=0.85;entryDx=0;entryDy=0;entryPerimeter=0;" parent="1" target="AoLztbrD8R_S6kmAyxuV-11" edge="1">
          <mxGeometry width="50" height="50" relative="1" as="geometry">
            <mxPoint x="1660" y="-200" as="sourcePoint" />
            <mxPoint x="1710" y="-250" as="targetPoint" />
          </mxGeometry>
        </mxCell>
        <mxCell id="AoLztbrD8R_S6kmAyxuV-20" value="" style="endArrow=classic;startArrow=classic;html=1;entryX=0;entryY=0.85;entryDx=0;entryDy=0;entryPerimeter=0;" parent="1" edge="1">
          <mxGeometry width="50" height="50" relative="1" as="geometry">
            <mxPoint x="1660" y="-342.12" as="sourcePoint" />
            <mxPoint x="1720" y="-342.12" as="targetPoint" />
          </mxGeometry>
        </mxCell>
        <mxCell id="AoLztbrD8R_S6kmAyxuV-21" value="" style="endArrow=classic;startArrow=classic;html=1;entryX=0;entryY=0.85;entryDx=0;entryDy=0;entryPerimeter=0;" parent="1" edge="1">
          <mxGeometry width="50" height="50" relative="1" as="geometry">
            <mxPoint x="1657.5" y="-481.12" as="sourcePoint" />
            <mxPoint x="1717.5" y="-481.12" as="targetPoint" />
          </mxGeometry>
        </mxCell>
        <mxCell id="AoLztbrD8R_S6kmAyxuV-22" value="" style="endArrow=classic;startArrow=classic;html=1;entryX=0;entryY=0.85;entryDx=0;entryDy=0;entryPerimeter=0;" parent="1" edge="1">
          <mxGeometry width="50" height="50" relative="1" as="geometry">
            <mxPoint x="1169.5" y="-342.29000000000013" as="sourcePoint" />
            <mxPoint x="1229.5" y="-342.29000000000013" as="targetPoint" />
          </mxGeometry>
        </mxCell>
        <mxCell id="AoLztbrD8R_S6kmAyxuV-23" value="" style="endArrow=classic;startArrow=classic;html=1;entryX=0;entryY=0.85;entryDx=0;entryDy=0;entryPerimeter=0;" parent="1" edge="1">
          <mxGeometry width="50" height="50" relative="1" as="geometry">
            <mxPoint x="1170" y="-481.2900000000002" as="sourcePoint" />
            <mxPoint x="1230" y="-481.2900000000002" as="targetPoint" />
          </mxGeometry>
        </mxCell>
        <mxCell id="AoLztbrD8R_S6kmAyxuV-24" value="" style="endArrow=classic;startArrow=classic;html=1;entryX=0;entryY=0.85;entryDx=0;entryDy=0;entryPerimeter=0;" parent="1" edge="1">
          <mxGeometry width="50" height="50" relative="1" as="geometry">
            <mxPoint x="1170" y="-201.2900000000002" as="sourcePoint" />
            <mxPoint x="1230" y="-201.2900000000002" as="targetPoint" />
          </mxGeometry>
        </mxCell>
        <mxCell id="AoLztbrD8R_S6kmAyxuV-25" value="History" style="text;html=1;strokeColor=none;fillColor=none;align=center;verticalAlign=middle;whiteSpace=wrap;rounded=0;" parent="1" vertex="1">
          <mxGeometry x="1235" y="-537" width="40" height="20" as="geometry" />
        </mxCell>
        <mxCell id="AoLztbrD8R_S6kmAyxuV-26" value="Login" style="text;html=1;strokeColor=none;fillColor=none;align=center;verticalAlign=middle;whiteSpace=wrap;rounded=0;" parent="1" vertex="1">
          <mxGeometry x="1234.2" y="-401" width="40" height="20" as="geometry" />
        </mxCell>
        <mxCell id="AoLztbrD8R_S6kmAyxuV-27" value="Live" style="text;html=1;strokeColor=none;fillColor=none;align=center;verticalAlign=middle;whiteSpace=wrap;rounded=0;" parent="1" vertex="1">
          <mxGeometry x="1234.2" y="-259" width="40" height="20" as="geometry" />
        </mxCell>
        <mxCell id="AoLztbrD8R_S6kmAyxuV-29" value="" style="aspect=fixed;html=1;points=[];align=center;image;fontSize=12;image=img/lib/mscae/Docker.svg;" parent="1" vertex="1">
          <mxGeometry x="1278.9999999999998" y="-536" width="25.61" height="21" as="geometry" />
        </mxCell>
        <mxCell id="AoLztbrD8R_S6kmAyxuV-30" value="" style="aspect=fixed;html=1;points=[];align=center;image;fontSize=12;image=img/lib/mscae/Docker.svg;" parent="1" vertex="1">
          <mxGeometry x="1274.1999999999998" y="-399" width="25.61" height="21" as="geometry" />
        </mxCell>
        <mxCell id="AoLztbrD8R_S6kmAyxuV-31" value="" style="aspect=fixed;html=1;points=[];align=center;image;fontSize=12;image=img/lib/mscae/Docker.svg;" parent="1" vertex="1">
          <mxGeometry x="1272.1999999999998" y="-257" width="25.61" height="21" as="geometry" />
        </mxCell>
        <mxCell id="AoLztbrD8R_S6kmAyxuV-37" value="" style="shape=image;html=1;verticalAlign=top;verticalLabelPosition=bottom;labelBackgroundColor=#ffffff;imageAspect=0;aspect=fixed;image=https://cdn4.iconfinder.com/data/icons/logos-brands-5/24/nginx-128.png" parent="1" vertex="1">
          <mxGeometry x="1103" y="-537" width="30" height="30" as="geometry" />
        </mxCell>
        <mxCell id="AoLztbrD8R_S6kmAyxuV-45" style="edgeStyle=orthogonalEdgeStyle;rounded=0;orthogonalLoop=1;jettySize=auto;html=1;entryX=0.008;entryY=0.523;entryDx=0;entryDy=0;entryPerimeter=0;" parent="1" source="AoLztbrD8R_S6kmAyxuV-39" target="AoLztbrD8R_S6kmAyxuV-6" edge="1">
          <mxGeometry relative="1" as="geometry" />
        </mxCell>
        <mxCell id="AoLztbrD8R_S6kmAyxuV-39" value="Router" style="rounded=1;whiteSpace=wrap;html=1;" parent="1" vertex="1">
          <mxGeometry x="1272.2" y="-506" width="120" height="60" as="geometry" />
        </mxCell>
        <mxCell id="AoLztbrD8R_S6kmAyxuV-44" style="edgeStyle=orthogonalEdgeStyle;rounded=0;orthogonalLoop=1;jettySize=auto;html=1;" parent="1" source="AoLztbrD8R_S6kmAyxuV-40" target="AoLztbrD8R_S6kmAyxuV-4" edge="1">
          <mxGeometry relative="1" as="geometry" />
        </mxCell>
        <mxCell id="AoLztbrD8R_S6kmAyxuV-40" value="Router" style="rounded=1;whiteSpace=wrap;html=1;" parent="1" vertex="1">
          <mxGeometry x="1272.2" y="-372" width="120" height="60" as="geometry" />
        </mxCell>
        <mxCell id="AoLztbrD8R_S6kmAyxuV-42" value="" style="edgeStyle=orthogonalEdgeStyle;rounded=0;orthogonalLoop=1;jettySize=auto;html=1;" parent="1" source="AoLztbrD8R_S6kmAyxuV-41" target="AoLztbrD8R_S6kmAyxuV-2" edge="1">
          <mxGeometry relative="1" as="geometry" />
        </mxCell>
        <mxCell id="AoLztbrD8R_S6kmAyxuV-41" value="Router" style="rounded=1;whiteSpace=wrap;html=1;" parent="1" vertex="1">
          <mxGeometry x="1272.2" y="-234" width="120" height="60" as="geometry" />
        </mxCell>
        <mxCell id="Q4ddRCu_6vm57bFwI37p-5" value="Live" style="rounded=0;whiteSpace=wrap;html=1;" parent="1" vertex="1">
          <mxGeometry x="3455" y="-930" width="120" height="40" as="geometry" />
        </mxCell>
        <mxCell id="PHbCOnVw7HgAq8utWp_A-40" style="edgeStyle=orthogonalEdgeStyle;rounded=0;orthogonalLoop=1;jettySize=auto;html=1;startArrow=none;startFill=0;endArrow=classic;endFill=1;" edge="1" parent="1" source="Q4ddRCu_6vm57bFwI37p-14" target="Q4ddRCu_6vm57bFwI37p-76">
          <mxGeometry relative="1" as="geometry">
            <Array as="points">
              <mxPoint x="2530" y="-300" />
              <mxPoint x="2530" y="-27" />
            </Array>
          </mxGeometry>
        </mxCell>
        <mxCell id="PHbCOnVw7HgAq8utWp_A-41" style="edgeStyle=orthogonalEdgeStyle;rounded=0;orthogonalLoop=1;jettySize=auto;html=1;entryX=0;entryY=0.5;entryDx=0;entryDy=0;startArrow=none;startFill=0;endArrow=classic;endFill=1;" edge="1" parent="1" source="Q4ddRCu_6vm57bFwI37p-14" target="Q4ddRCu_6vm57bFwI37p-62">
          <mxGeometry relative="1" as="geometry" />
        </mxCell>
        <mxCell id="Q4ddRCu_6vm57bFwI37p-14" value="Reverse&lt;br&gt;Proxy" style="rounded=1;whiteSpace=wrap;html=1;" parent="1" vertex="1">
          <mxGeometry x="2310" y="-930" width="150" height="1260" as="geometry" />
        </mxCell>
        <mxCell id="Q4ddRCu_6vm57bFwI37p-26" value="" style="aspect=fixed;html=1;points=[];align=center;image;fontSize=12;image=img/lib/mscae/Docker.svg;" parent="1" vertex="1">
          <mxGeometry x="3536.95" y="-921" width="25.61" height="21" as="geometry" />
        </mxCell>
        <mxCell id="Q4ddRCu_6vm57bFwI37p-27" value="" style="shape=image;html=1;verticalAlign=top;verticalLabelPosition=bottom;labelBackgroundColor=#ffffff;imageAspect=0;aspect=fixed;image=https://cdn4.iconfinder.com/data/icons/logos-brands-5/24/nginx-128.png" parent="1" vertex="1">
          <mxGeometry x="2320" y="-913" width="45" height="45" as="geometry" />
        </mxCell>
        <mxCell id="Q4ddRCu_6vm57bFwI37p-31" value="Router" style="rounded=1;whiteSpace=wrap;html=1;" parent="1" vertex="1">
          <mxGeometry x="3453.75" y="-405.5" width="120" height="60" as="geometry" />
        </mxCell>
        <mxCell id="PHbCOnVw7HgAq8utWp_A-31" style="edgeStyle=orthogonalEdgeStyle;rounded=0;orthogonalLoop=1;jettySize=auto;html=1;entryX=1;entryY=0.5;entryDx=0;entryDy=0;startArrow=none;startFill=0;endArrow=classic;endFill=1;exitX=1;exitY=0.5;exitDx=0;exitDy=0;" edge="1" parent="1" source="Q4ddRCu_6vm57bFwI37p-34" target="Q4ddRCu_6vm57bFwI37p-35">
          <mxGeometry relative="1" as="geometry" />
        </mxCell>
        <mxCell id="Q4ddRCu_6vm57bFwI37p-34" value="Read from /topic" style="rounded=1;whiteSpace=wrap;html=1;" parent="1" vertex="1">
          <mxGeometry x="3545" y="-860" width="120" height="40" as="geometry" />
        </mxCell>
        <mxCell id="PHbCOnVw7HgAq8utWp_A-32" style="edgeStyle=orthogonalEdgeStyle;rounded=0;orthogonalLoop=1;jettySize=auto;html=1;startArrow=none;startFill=0;endArrow=classic;endFill=1;" edge="1" parent="1" source="Q4ddRCu_6vm57bFwI37p-35" target="PHbCOnVw7HgAq8utWp_A-19">
          <mxGeometry relative="1" as="geometry" />
        </mxCell>
        <mxCell id="Q4ddRCu_6vm57bFwI37p-35" value="Insert data&amp;nbsp;" style="rounded=1;whiteSpace=wrap;html=1;" parent="1" vertex="1">
          <mxGeometry x="3545" y="-800" width="120" height="40" as="geometry" />
        </mxCell>
        <mxCell id="Q4ddRCu_6vm57bFwI37p-45" value="" style="edgeStyle=orthogonalEdgeStyle;rounded=0;orthogonalLoop=1;jettySize=auto;html=1;entryX=0.75;entryY=0;entryDx=0;entryDy=0;" parent="1" source="Q4ddRCu_6vm57bFwI37p-40" target="Q4ddRCu_6vm57bFwI37p-41" edge="1">
          <mxGeometry relative="1" as="geometry">
            <Array as="points">
              <mxPoint x="3811.75" y="-180" />
              <mxPoint x="3609.75" y="-180" />
            </Array>
          </mxGeometry>
        </mxCell>
        <mxCell id="Q4ddRCu_6vm57bFwI37p-40" value="&lt;div style=&quot;text-align: justify&quot;&gt;&lt;span&gt;&lt;br&gt;&lt;/span&gt;&lt;/div&gt;&lt;div style=&quot;text-align: justify&quot;&gt;&lt;span&gt;&lt;br&gt;&lt;/span&gt;&lt;/div&gt;&lt;div style=&quot;text-align: justify&quot;&gt;&lt;span&gt;fucntion getUsers()&amp;nbsp; {&lt;/span&gt;&lt;br&gt;&lt;/div&gt;&lt;blockquote style=&quot;margin: 0 0 0 40px ; border: none ; padding: 0px&quot;&gt;&lt;div&gt;&lt;span&gt;getUsers()&lt;/span&gt;&lt;/div&gt;&lt;div&gt;send.json(data)&lt;/div&gt;&lt;/blockquote&gt;&lt;div style=&quot;text-align: justify&quot;&gt;}&lt;/div&gt;&lt;div style=&quot;text-align: justify&quot;&gt;&lt;span&gt;&lt;br&gt;&lt;/span&gt;&lt;/div&gt;&lt;div style=&quot;text-align: justify&quot;&gt;&lt;span&gt;&lt;br&gt;&lt;/span&gt;&lt;/div&gt;" style="rounded=1;whiteSpace=wrap;html=1;align=left;" parent="1" vertex="1">
          <mxGeometry x="3718.75" y="-373.75" width="185" height="171" as="geometry" />
        </mxCell>
        <mxCell id="Q4ddRCu_6vm57bFwI37p-7" value="Router Controller" style="rounded=1;whiteSpace=wrap;html=1;" parent="1" vertex="1">
          <mxGeometry x="3718.75" y="-403.5" width="120" height="60" as="geometry" />
        </mxCell>
        <mxCell id="PHbCOnVw7HgAq8utWp_A-27" style="edgeStyle=orthogonalEdgeStyle;rounded=0;orthogonalLoop=1;jettySize=auto;html=1;entryX=1;entryY=0.5;entryDx=0;entryDy=0;startArrow=classic;startFill=1;endArrow=classic;endFill=1;exitX=1;exitY=0.5;exitDx=0;exitDy=0;" edge="1" parent="1" source="Q4ddRCu_6vm57bFwI37p-41" target="PHbCOnVw7HgAq8utWp_A-21">
          <mxGeometry relative="1" as="geometry">
            <Array as="points">
              <mxPoint x="4120" y="-57" />
              <mxPoint x="4120" y="259" />
            </Array>
          </mxGeometry>
        </mxCell>
        <mxCell id="Q4ddRCu_6vm57bFwI37p-41" value="&lt;div style=&quot;text-align: justify&quot;&gt;&lt;ul&gt;&lt;li&gt;&lt;span&gt;getUsers&lt;/span&gt;&lt;/li&gt;&lt;li&gt;&lt;span&gt;createUser&lt;/span&gt;&lt;/li&gt;&lt;li&gt;&lt;span&gt;getUserByUsername&lt;/span&gt;&lt;/li&gt;&lt;li&gt;getUserByUserID&lt;/li&gt;&lt;li&gt;&lt;span&gt;updateUser&lt;/span&gt;&lt;/li&gt;&lt;/ul&gt;&lt;/div&gt;" style="rounded=1;whiteSpace=wrap;html=1;align=left;" parent="1" vertex="1">
          <mxGeometry x="3470.7" y="-140" width="185" height="166" as="geometry" />
        </mxCell>
        <mxCell id="Q4ddRCu_6vm57bFwI37p-42" value="Controller" style="rounded=1;whiteSpace=wrap;html=1;" parent="1" vertex="1">
          <mxGeometry x="3470.7" y="-170" width="120" height="60" as="geometry" />
        </mxCell>
        <mxCell id="Q4ddRCu_6vm57bFwI37p-1" value="" style="rounded=0;whiteSpace=wrap;html=1;fillColor=#FFFFFF;" parent="1" vertex="1">
          <mxGeometry x="3418.75" y="-470" width="130.5" height="55.5" as="geometry" />
        </mxCell>
        <mxCell id="Q4ddRCu_6vm57bFwI37p-22" value="Users" style="text;html=1;strokeColor=none;fillColor=none;align=center;verticalAlign=middle;whiteSpace=wrap;rounded=0;" parent="1" vertex="1">
          <mxGeometry x="3446.44" y="-453.44" width="44.75" height="22.38" as="geometry" />
        </mxCell>
        <mxCell id="Q4ddRCu_6vm57bFwI37p-25" value="" style="aspect=fixed;html=1;points=[];align=center;image;fontSize=12;image=img/lib/mscae/Docker.svg;" parent="1" vertex="1">
          <mxGeometry x="3491.19" y="-452.75" width="25.61" height="21" as="geometry" />
        </mxCell>
        <mxCell id="Q4ddRCu_6vm57bFwI37p-48" value="" style="edgeStyle=orthogonalEdgeStyle;rounded=0;orthogonalLoop=1;jettySize=auto;html=1;" parent="1" source="Q4ddRCu_6vm57bFwI37p-49" target="Q4ddRCu_6vm57bFwI37p-53" edge="1">
          <mxGeometry relative="1" as="geometry" />
        </mxCell>
        <mxCell id="Q4ddRCu_6vm57bFwI37p-49" value="&lt;div style=&quot;text-align: justify&quot;&gt;&lt;ul&gt;&lt;li&gt;&lt;span&gt;GET api/v1/views&lt;/span&gt;&lt;/li&gt;&lt;li&gt;&lt;span&gt;GET api/v1/views/users/:username&lt;/span&gt;&lt;/li&gt;&lt;/ul&gt;&lt;/div&gt;" style="rounded=1;whiteSpace=wrap;html=1;align=left;" parent="1" vertex="1">
          <mxGeometry x="2895.5" y="-28.5" width="235" height="172" as="geometry" />
        </mxCell>
        <mxCell id="Q4ddRCu_6vm57bFwI37p-51" value="Router" style="rounded=1;whiteSpace=wrap;html=1;" parent="1" vertex="1">
          <mxGeometry x="2895.5" y="-47.5" width="120" height="60" as="geometry" />
        </mxCell>
        <mxCell id="Q4ddRCu_6vm57bFwI37p-52" value="" style="edgeStyle=orthogonalEdgeStyle;rounded=0;orthogonalLoop=1;jettySize=auto;html=1;entryX=0.75;entryY=0;entryDx=0;entryDy=0;" parent="1" source="Q4ddRCu_6vm57bFwI37p-53" target="Q4ddRCu_6vm57bFwI37p-56" edge="1">
          <mxGeometry relative="1" as="geometry">
            <Array as="points">
              <mxPoint x="3253.5" y="151.5" />
              <mxPoint x="3034.5" y="151.5" />
              <mxPoint x="3034.5" y="175.5" />
            </Array>
          </mxGeometry>
        </mxCell>
        <mxCell id="Q4ddRCu_6vm57bFwI37p-53" value="&lt;div style=&quot;text-align: justify&quot;&gt;&lt;span&gt;&lt;br&gt;&lt;/span&gt;&lt;/div&gt;&lt;div style=&quot;text-align: justify&quot;&gt;&lt;span&gt;&lt;br&gt;&lt;/span&gt;&lt;/div&gt;&lt;div style=&quot;text-align: justify&quot;&gt;&lt;span&gt;fucntion getViews()&amp;nbsp; {&lt;/span&gt;&lt;br&gt;&lt;/div&gt;&lt;blockquote style=&quot;margin: 0 0 0 40px ; border: none ; padding: 0px&quot;&gt;&lt;div&gt;&lt;span&gt;getViews()&lt;/span&gt;&lt;/div&gt;&lt;div&gt;send.json(data)&lt;/div&gt;&lt;/blockquote&gt;&lt;div style=&quot;text-align: justify&quot;&gt;}&lt;/div&gt;&lt;div style=&quot;text-align: justify&quot;&gt;&lt;span&gt;&lt;br&gt;&lt;/span&gt;&lt;/div&gt;&lt;div style=&quot;text-align: justify&quot;&gt;&lt;span&gt;&lt;br&gt;&lt;/span&gt;&lt;/div&gt;" style="rounded=1;whiteSpace=wrap;html=1;align=left;" parent="1" vertex="1">
          <mxGeometry x="3160.5" y="-27.5" width="185" height="171" as="geometry" />
        </mxCell>
        <mxCell id="Q4ddRCu_6vm57bFwI37p-54" value="Router Controller" style="rounded=1;whiteSpace=wrap;html=1;" parent="1" vertex="1">
          <mxGeometry x="3160.5" y="-45.5" width="120" height="60" as="geometry" />
        </mxCell>
        <mxCell id="Q4ddRCu_6vm57bFwI37p-56" value="&lt;div style=&quot;text-align: justify&quot;&gt;&lt;ul&gt;&lt;li&gt;&lt;span&gt;getViews&lt;/span&gt;&lt;/li&gt;&lt;li&gt;&lt;span&gt;getViewsByUsername&lt;/span&gt;&lt;/li&gt;&lt;li&gt;&lt;span&gt;getUserByUsername&lt;/span&gt;&lt;/li&gt;&lt;/ul&gt;&lt;/div&gt;" style="rounded=1;whiteSpace=wrap;html=1;align=left;" parent="1" vertex="1">
          <mxGeometry x="2895.5" y="175.5" width="185" height="166" as="geometry" />
        </mxCell>
        <mxCell id="Q4ddRCu_6vm57bFwI37p-57" value="Controller" style="rounded=1;whiteSpace=wrap;html=1;" parent="1" vertex="1">
          <mxGeometry x="2895.5" y="157.5" width="120" height="60" as="geometry" />
        </mxCell>
        <mxCell id="Q4ddRCu_6vm57bFwI37p-59" value="" style="rounded=0;whiteSpace=wrap;html=1;fillColor=#FFFFFF;" parent="1" vertex="1">
          <mxGeometry x="2860.5" y="-112" width="130.5" height="55.5" as="geometry" />
        </mxCell>
        <mxCell id="Q4ddRCu_6vm57bFwI37p-60" value="Views" style="text;html=1;strokeColor=none;fillColor=none;align=center;verticalAlign=middle;whiteSpace=wrap;rounded=0;" parent="1" vertex="1">
          <mxGeometry x="2888.19" y="-95.44" width="44.75" height="22.38" as="geometry" />
        </mxCell>
        <mxCell id="Q4ddRCu_6vm57bFwI37p-61" value="" style="aspect=fixed;html=1;points=[];align=center;image;fontSize=12;image=img/lib/mscae/Docker.svg;" parent="1" vertex="1">
          <mxGeometry x="2932.94" y="-94.75" width="25.61" height="21" as="geometry" />
        </mxCell>
        <mxCell id="Q4ddRCu_6vm57bFwI37p-63" value="" style="edgeStyle=orthogonalEdgeStyle;rounded=0;orthogonalLoop=1;jettySize=auto;html=1;" parent="1" source="Q4ddRCu_6vm57bFwI37p-64" target="Q4ddRCu_6vm57bFwI37p-68" edge="1">
          <mxGeometry relative="1" as="geometry" />
        </mxCell>
        <mxCell id="Q4ddRCu_6vm57bFwI37p-64" value="&lt;div style=&quot;text-align: justify&quot;&gt;&lt;ul&gt;&lt;li&gt;&lt;span&gt;GET api/v1/&lt;/span&gt;collections&lt;/li&gt;&lt;li&gt;&lt;span&gt;GET api/v1/&lt;/span&gt;collections/:collection/sessions&lt;/li&gt;&lt;li&gt;&lt;span&gt;GET api/v1&lt;/span&gt;/collections/:collection/sessions/:session&lt;/li&gt;&lt;li&gt;&lt;span&gt;GET api/v1&lt;/span&gt;/collections/:collection/sessions/:session/minmax&lt;/li&gt;&lt;li&gt;&lt;span&gt;GET api/v1/&lt;/span&gt;data/:collection/:timestamp&lt;/li&gt;&lt;li&gt;GET api/v1/data/:collection/:session/:start/:finish&lt;/li&gt;&lt;li&gt;GET api/v1/documents/:collection/:id&lt;/li&gt;&lt;/ul&gt;&lt;/div&gt;" style="rounded=1;whiteSpace=wrap;html=1;align=left;" parent="1" vertex="1">
          <mxGeometry x="2629.5" y="-820" width="386.7" height="212" as="geometry" />
        </mxCell>
        <mxCell id="Q4ddRCu_6vm57bFwI37p-66" value="Router" style="rounded=1;whiteSpace=wrap;html=1;" parent="1" vertex="1">
          <mxGeometry x="2627.57" y="-842.5" width="120" height="60" as="geometry" />
        </mxCell>
        <mxCell id="PHbCOnVw7HgAq8utWp_A-2" style="edgeStyle=orthogonalEdgeStyle;rounded=0;orthogonalLoop=1;jettySize=auto;html=1;entryX=0.75;entryY=0;entryDx=0;entryDy=0;" edge="1" parent="1" source="Q4ddRCu_6vm57bFwI37p-68" target="Q4ddRCu_6vm57bFwI37p-71">
          <mxGeometry relative="1" as="geometry">
            <Array as="points">
              <mxPoint x="3153" y="-600" />
              <mxPoint x="2886" y="-600" />
            </Array>
          </mxGeometry>
        </mxCell>
        <mxCell id="Q4ddRCu_6vm57bFwI37p-68" value="&lt;div style=&quot;text-align: justify&quot;&gt;&lt;span&gt;&lt;br&gt;&lt;/span&gt;&lt;/div&gt;&lt;div style=&quot;text-align: justify&quot;&gt;&lt;span&gt;&lt;br&gt;&lt;/span&gt;&lt;/div&gt;&lt;div style=&quot;text-align: justify&quot;&gt;&lt;span&gt;fucntion getCollections()&amp;nbsp; {&lt;/span&gt;&lt;br&gt;&lt;/div&gt;&lt;blockquote style=&quot;margin: 0 0 0 40px ; border: none ; padding: 0px&quot;&gt;&lt;div&gt;&lt;span&gt;getCollections()&lt;/span&gt;&lt;/div&gt;&lt;div&gt;send.json(data)&lt;/div&gt;&lt;/blockquote&gt;&lt;div style=&quot;text-align: justify&quot;&gt;}&lt;/div&gt;&lt;div style=&quot;text-align: justify&quot;&gt;&lt;span&gt;&lt;br&gt;&lt;/span&gt;&lt;/div&gt;&lt;div style=&quot;text-align: justify&quot;&gt;&lt;span&gt;&lt;br&gt;&lt;/span&gt;&lt;/div&gt;" style="rounded=1;whiteSpace=wrap;html=1;align=left;" parent="1" vertex="1">
          <mxGeometry x="3060" y="-799.5" width="185" height="171" as="geometry" />
        </mxCell>
        <mxCell id="Q4ddRCu_6vm57bFwI37p-69" value="Router Controller" style="rounded=1;whiteSpace=wrap;html=1;" parent="1" vertex="1">
          <mxGeometry x="3060" y="-817" width="120" height="60" as="geometry" />
        </mxCell>
        <mxCell id="Q4ddRCu_6vm57bFwI37p-71" value="&lt;div style=&quot;text-align: justify&quot;&gt;&lt;ul&gt;&lt;li&gt;&lt;span&gt;getUsers&lt;/span&gt;&lt;/li&gt;&lt;li&gt;&lt;span&gt;createUser&lt;/span&gt;&lt;/li&gt;&lt;li&gt;&lt;span&gt;getUserByUsername&lt;/span&gt;&lt;/li&gt;&lt;li&gt;getUserByUserID&lt;/li&gt;&lt;li&gt;&lt;span&gt;updateUser&lt;/span&gt;&lt;/li&gt;&lt;/ul&gt;&lt;/div&gt;" style="rounded=1;whiteSpace=wrap;html=1;align=left;" parent="1" vertex="1">
          <mxGeometry x="2747.57" y="-582" width="185" height="166" as="geometry" />
        </mxCell>
        <mxCell id="Q4ddRCu_6vm57bFwI37p-72" value="Controller" style="rounded=1;whiteSpace=wrap;html=1;" parent="1" vertex="1">
          <mxGeometry x="2747.57" y="-600" width="120" height="60" as="geometry" />
        </mxCell>
        <mxCell id="Q4ddRCu_6vm57bFwI37p-73" value="" style="rounded=0;whiteSpace=wrap;html=1;fillColor=#FFFFFF;" parent="1" vertex="1">
          <mxGeometry x="2600" y="-920" width="160.5" height="67" as="geometry" />
        </mxCell>
        <mxCell id="Q4ddRCu_6vm57bFwI37p-74" value="History" style="text;html=1;strokeColor=none;fillColor=none;align=center;verticalAlign=middle;whiteSpace=wrap;rounded=0;" parent="1" vertex="1">
          <mxGeometry x="2642.1899999999996" y="-900" width="44.75" height="22.38" as="geometry" />
        </mxCell>
        <mxCell id="Q4ddRCu_6vm57bFwI37p-75" value="" style="aspect=fixed;html=1;points=[];align=center;image;fontSize=12;image=img/lib/mscae/Docker.svg;" parent="1" vertex="1">
          <mxGeometry x="2692.6899999999996" y="-900" width="25.61" height="21" as="geometry" />
        </mxCell>
        <mxCell id="PHbCOnVw7HgAq8utWp_A-42" style="edgeStyle=orthogonalEdgeStyle;rounded=0;orthogonalLoop=1;jettySize=auto;html=1;startArrow=none;startFill=0;endArrow=classic;endFill=1;exitX=1.009;exitY=0.125;exitDx=0;exitDy=0;exitPerimeter=0;" edge="1" parent="1" source="Q4ddRCu_6vm57bFwI37p-76" target="Q4ddRCu_6vm57bFwI37p-62">
          <mxGeometry relative="1" as="geometry">
            <Array as="points">
              <mxPoint x="2932" y="-299" />
            </Array>
          </mxGeometry>
        </mxCell>
        <mxCell id="PHbCOnVw7HgAq8utWp_A-43" style="edgeStyle=orthogonalEdgeStyle;rounded=0;orthogonalLoop=1;jettySize=auto;html=1;startArrow=none;startFill=0;endArrow=classic;endFill=1;" edge="1" parent="1" source="Q4ddRCu_6vm57bFwI37p-76" target="Q4ddRCu_6vm57bFwI37p-46">
          <mxGeometry relative="1" as="geometry">
            <Array as="points">
              <mxPoint x="2920" y="-207" />
              <mxPoint x="2920" y="-207" />
            </Array>
          </mxGeometry>
        </mxCell>
        <mxCell id="PHbCOnVw7HgAq8utWp_A-44" style="edgeStyle=orthogonalEdgeStyle;rounded=0;orthogonalLoop=1;jettySize=auto;html=1;entryX=0;entryY=0.5;entryDx=0;entryDy=0;startArrow=none;startFill=0;endArrow=classic;endFill=1;" edge="1" parent="1" source="Q4ddRCu_6vm57bFwI37p-76" target="Q4ddRCu_6vm57bFwI37p-58">
          <mxGeometry relative="1" as="geometry" />
        </mxCell>
        <mxCell id="Q4ddRCu_6vm57bFwI37p-76" value="" style="rounded=1;whiteSpace=wrap;html=1;" parent="1" vertex="1">
          <mxGeometry x="2560" y="-390" width="220" height="726" as="geometry" />
        </mxCell>
        <mxCell id="PHbCOnVw7HgAq8utWp_A-3" value="" style="rounded=1;whiteSpace=wrap;html=1;fillColor=none;" vertex="1" parent="1">
          <mxGeometry x="3481.95" y="-680" width="258.75" height="190" as="geometry" />
        </mxCell>
        <mxCell id="PHbCOnVw7HgAq8utWp_A-4" value="Publisher" style="rounded=0;whiteSpace=wrap;html=1;" vertex="1" parent="1">
          <mxGeometry x="3481.95" y="-680" width="160" height="40" as="geometry" />
        </mxCell>
        <mxCell id="PHbCOnVw7HgAq8utWp_A-6" value="" style="aspect=fixed;html=1;points=[];align=center;image;fontSize=12;image=img/lib/mscae/Docker.svg;" vertex="1" parent="1">
          <mxGeometry x="3594.1399999999994" y="-670.5" width="25.61" height="21" as="geometry" />
        </mxCell>
        <mxCell id="PHbCOnVw7HgAq8utWp_A-7" style="edgeStyle=orthogonalEdgeStyle;rounded=0;orthogonalLoop=1;jettySize=auto;html=1;entryX=0;entryY=0.5;entryDx=0;entryDy=0;" edge="1" source="PHbCOnVw7HgAq8utWp_A-8" target="PHbCOnVw7HgAq8utWp_A-10" parent="1">
          <mxGeometry relative="1" as="geometry">
            <Array as="points">
              <mxPoint x="3549.95" y="-537" />
            </Array>
          </mxGeometry>
        </mxCell>
        <mxCell id="PHbCOnVw7HgAq8utWp_A-8" value="Generate Data" style="rounded=1;whiteSpace=wrap;html=1;" vertex="1" parent="1">
          <mxGeometry x="3500.7" y="-617" width="120" height="40" as="geometry" />
        </mxCell>
        <mxCell id="PHbCOnVw7HgAq8utWp_A-30" style="edgeStyle=orthogonalEdgeStyle;rounded=0;orthogonalLoop=1;jettySize=auto;html=1;startArrow=none;startFill=0;endArrow=classic;endFill=1;entryX=0.25;entryY=1;entryDx=0;entryDy=0;" edge="1" parent="1" source="PHbCOnVw7HgAq8utWp_A-10" target="PHbCOnVw7HgAq8utWp_A-37">
          <mxGeometry relative="1" as="geometry" />
        </mxCell>
        <mxCell id="PHbCOnVw7HgAq8utWp_A-10" value="Send to /topic" style="rounded=1;whiteSpace=wrap;html=1;" vertex="1" parent="1">
          <mxGeometry x="3583.2" y="-557" width="120" height="40" as="geometry" />
        </mxCell>
        <mxCell id="PHbCOnVw7HgAq8utWp_A-29" style="edgeStyle=orthogonalEdgeStyle;rounded=0;orthogonalLoop=1;jettySize=auto;html=1;entryX=1;entryY=0.5;entryDx=0;entryDy=0;startArrow=none;startFill=0;endArrow=classic;endFill=1;exitX=0.25;exitY=0;exitDx=0;exitDy=0;" edge="1" parent="1" source="PHbCOnVw7HgAq8utWp_A-37" target="PHbCOnVw7HgAq8utWp_A-14">
          <mxGeometry relative="1" as="geometry">
            <Array as="points">
              <mxPoint x="4030" y="-880" />
            </Array>
          </mxGeometry>
        </mxCell>
        <mxCell id="PHbCOnVw7HgAq8utWp_A-28" style="edgeStyle=orthogonalEdgeStyle;rounded=0;orthogonalLoop=1;jettySize=auto;html=1;entryX=0.5;entryY=0;entryDx=0;entryDy=0;startArrow=classic;startFill=1;endArrow=none;endFill=0;" edge="1" parent="1" source="PHbCOnVw7HgAq8utWp_A-14" target="Q4ddRCu_6vm57bFwI37p-34">
          <mxGeometry relative="1" as="geometry" />
        </mxCell>
        <mxCell id="PHbCOnVw7HgAq8utWp_A-14" value="add Listener" style="rounded=1;whiteSpace=wrap;html=1;" vertex="1" parent="1">
          <mxGeometry x="3735.5" y="-900" width="120" height="40" as="geometry" />
        </mxCell>
        <mxCell id="PHbCOnVw7HgAq8utWp_A-26" value="" style="edgeStyle=orthogonalEdgeStyle;rounded=0;orthogonalLoop=1;jettySize=auto;html=1;startArrow=none;startFill=0;endArrow=classic;endFill=1;" edge="1" parent="1" source="PHbCOnVw7HgAq8utWp_A-19" target="Q4ddRCu_6vm57bFwI37p-71">
          <mxGeometry relative="1" as="geometry">
            <Array as="points">
              <mxPoint x="3330" y="-499" />
            </Array>
          </mxGeometry>
        </mxCell>
        <mxCell id="PHbCOnVw7HgAq8utWp_A-19" value="" style="shape=image;imageAspect=0;aspect=fixed;verticalLabelPosition=bottom;verticalAlign=top;rounded=0;image=https://external-content.duckduckgo.com/iu/?u=https%3A%2F%2Fwww.mongodb.com%2Fassets%2Fimages%2Fcloud%2Fatlas-splash.jpg&amp;f=1&amp;nofb=1;imageBorder=#000000;" vertex="1" parent="1">
          <mxGeometry x="3280.5" y="-1140" width="159.73" height="90" as="geometry" />
        </mxCell>
        <mxCell id="PHbCOnVw7HgAq8utWp_A-22" style="edgeStyle=orthogonalEdgeStyle;rounded=0;orthogonalLoop=1;jettySize=auto;html=1;" edge="1" parent="1" source="PHbCOnVw7HgAq8utWp_A-21" target="Q4ddRCu_6vm57bFwI37p-56">
          <mxGeometry relative="1" as="geometry" />
        </mxCell>
        <mxCell id="PHbCOnVw7HgAq8utWp_A-21" value="" style="shape=image;verticalLabelPosition=bottom;labelBackgroundColor=#ffffff;verticalAlign=top;aspect=fixed;imageAspect=0;image=https://softwareengineeringdaily.com/wp-content/uploads/2019/05/Airtable.png;imageBorder=#000000;" vertex="1" parent="1">
          <mxGeometry x="4000" y="203.5" width="209.52" height="110" as="geometry" />
        </mxCell>
        <mxCell id="PHbCOnVw7HgAq8utWp_A-33" value="" style="rounded=0;whiteSpace=wrap;html=1;fillColor=#FFFFFF;" vertex="1" parent="1">
          <mxGeometry x="2560" y="-390" width="130.5" height="55.5" as="geometry" />
        </mxCell>
        <mxCell id="PHbCOnVw7HgAq8utWp_A-34" value="API Gateway" style="text;html=1;strokeColor=none;fillColor=none;align=center;verticalAlign=middle;whiteSpace=wrap;rounded=0;" vertex="1" parent="1">
          <mxGeometry x="2587.69" y="-373.44" width="44.75" height="22.38" as="geometry" />
        </mxCell>
        <mxCell id="PHbCOnVw7HgAq8utWp_A-35" value="" style="aspect=fixed;html=1;points=[];align=center;image;fontSize=12;image=img/lib/mscae/Docker.svg;" vertex="1" parent="1">
          <mxGeometry x="2651.33" y="-372.75" width="25.61" height="21" as="geometry" />
        </mxCell>
        <mxCell id="PHbCOnVw7HgAq8utWp_A-36" value="" style="aspect=fixed;html=1;points=[];align=center;image;fontSize=12;image=img/lib/mscae/Docker.svg;" vertex="1" parent="1">
          <mxGeometry x="2370" y="-907" width="40.24" height="33" as="geometry" />
        </mxCell>
        <mxCell id="PHbCOnVw7HgAq8utWp_A-47" value="" style="shape=image;verticalLabelPosition=bottom;labelBackgroundColor=#ffffff;verticalAlign=top;aspect=fixed;imageAspect=0;image=https://quintagroup.com/cms/technology/Images/docker-compose-button.jpg;imageBorder=#000000;" vertex="1" parent="1">
          <mxGeometry x="2260" y="-1080" width="270" height="129.81" as="geometry" />
        </mxCell>
        <mxCell id="PHbCOnVw7HgAq8utWp_A-48" value="" style="shape=image;verticalLabelPosition=bottom;labelBackgroundColor=#ffffff;verticalAlign=top;aspect=fixed;imageAspect=0;image=https://www.penninkhof.com/wp-content/uploads/2015/03/MQTT.png;" vertex="1" parent="1">
          <mxGeometry x="3995.25" y="-754.73" width="150" height="84.23" as="geometry" />
        </mxCell>
        <mxCell id="PHbCOnVw7HgAq8utWp_A-49" value="&lt;div style=&quot;text-align: justify&quot;&gt;&lt;ul&gt;&lt;li&gt;&lt;span&gt;POST api/v1/login&lt;/span&gt;&lt;/li&gt;&lt;li&gt;&lt;span&gt;POST api/v1/signup&lt;/span&gt;&lt;/li&gt;&lt;li&gt;&lt;span&gt;GET api/v1/docs/:doc&lt;/span&gt;&lt;/li&gt;&lt;li&gt;GET api/v1/views/:username&lt;/li&gt;&lt;/ul&gt;&lt;/div&gt;" style="rounded=1;whiteSpace=wrap;html=1;align=left;" vertex="1" parent="1">
          <mxGeometry x="2570" y="-280.5" width="200" height="172" as="geometry" />
        </mxCell>
        <mxCell id="PHbCOnVw7HgAq8utWp_A-50" value="Router" style="rounded=1;whiteSpace=wrap;html=1;" vertex="1" parent="1">
          <mxGeometry x="2570" y="-299" width="120" height="60" as="geometry" />
        </mxCell>
      </root>
    </mxGraphModel>
  </diagram>
</mxfile>
